<?xml version="1.0" encoding="utf-8"?>
<!-- Generator: Adobe Illustrator 26.2.1, SVG Export Plug-In . SVG Version: 6.00 Build 0)  -->
<svg version="1.1" id="Capa_1" xmlns="http://www.w3.org/2000/svg" xmlns:xlink="http://www.w3.org/1999/xlink" x="0px" y="0px"
	 viewBox="0 0 282.6 137" style="enable-background:new 0 0 282.6 137;" xml:space="preserve">
<style type="text/css">
	.st0{fill:#D90833;}
</style>
<g>
	<path class="st0" d="M75,8.8c7,0,10.4,2.2,10.4,6.5V16c0,1.2-3.7,2.9-11.1,5.2v-1.3l5.9-2.6L78.9,16h-7.2
		c-10.1,1-22.1,7.7-35.9,20.2c-4.8,4.9-7.2,8.6-7.2,11.1c0,2.7,2.8,4.9,8.5,6.5l9.1-0.7c2.6,0.9,3.9,1.7,3.9,2.6v2
		c0,1.7-3,3-9.1,3.9L40.4,61h-0.7c-6.4,0-14.7,7-24.8,20.9C9.3,91.5,6.5,99.6,6.5,106c1.6,9.6,8.4,14.3,20.2,14.3
		c15.8,0,28.2-3.7,37.2-11.1v0.7c-10.7,11.3-22.2,17-34.6,17h-5.2c-12.6,0-20.7-6.1-24.1-18.3v-3.9c0-15.5,9.6-31.2,28.7-47
		c-4.3-2.9-6.5-6.4-6.5-10.4v-0.7c0-8.2,10.4-18.8,31.3-32C62.9,10.8,70.1,8.8,75,8.8z"/>
	<path class="st0" d="M96.6,0h0.7l2,2l-6.5,57.4L92,80.9v4.6c7.9-6.1,11.9-11.1,11.9-15h0.7v0.7c0,5-4,12.6-11.9,22.8l4.7,16.1
		l-0.7,0.7H96c-6.5-4.8-9.6-8.9-9.3-12.2H86c-4.7,1.7-8.4,2.6-11.1,2.6h-0.7c-6.1,0-9.6-3.7-10.4-11.1v-1.3
		c0-9.8,4.8-16.1,14.3-18.9H82l3.3,0.7C89,23.5,92.7,0,96.6,0z M70.5,89.3c0.5,3.5,2.1,5.2,4.6,5.2c3.4,0,6.8-1.5,10.4-4.6v-4.6
		l-0.7-2.6l0.7-0.7l-0.7-3.3V78l0.7-0.7L84.9,75h-2C76.3,75,72.2,79.8,70.5,89.3z"/>
	<path class="st0" d="M106,58.4h0.7l2.6,2.6v0.7L106.6,89l1.3,14.3l-2,0.7c-3.9-1.3-5.9-5-5.9-11.1V87
		C101.4,67.9,103.4,58.4,106,58.4z M108.9,32.8h1.3c2.6,0,5,2,7.2,5.9V42c0,2.4-1.5,4.6-4.6,6.5h-2c-4.3-0.7-6.5-2.6-6.5-5.9V40
		C104.4,37.3,105.9,34.9,108.9,32.8z"/>
	<path class="st0" d="M119.6,47.4h2c1.3,0.4,2,1.7,2,3.9v3.3L121,85.9v0.7h0.7c4.2-17.8,7.9-26.7,11.1-26.7h0.7
		c5.2,0,7.8,8.5,7.8,25.4c3.6,18.7,7.7,28,12.4,28c1.3,0,3.7-1.5,7.2-4.6v0.7c-3.2,5.2-6.4,7.8-9.8,7.8h-1.3
		c-8.3,0-13.7-15.2-16.3-45.7h-0.7c-5.9,22.7-9.8,35.8-11.7,39.1l-2,1.3h-2c-2.6-1.2-3.9-4-3.9-8.5
		C115.4,66.1,117.5,47.4,119.6,47.4z"/>
	<path class="st0" d="M163.7,56.6c2.2,0,4.1,1.3,5.9,3.9v1.3l-2,2l-0.7-0.7c-6.4,0.5-9.9,1.8-10.4,3.9c2.8,4.3,8.9,10,18.3,17
		c1.7,2.9,2.6,5.3,2.6,7.2v2c0,5.7-4.3,9.3-13,11.1h-2c-5.2-1.1-7.8-3.7-7.8-7.8v-1.3l2-2h0.7c0.4,3,2.8,4.6,7.2,4.6
		c4.3-1.2,6.5-3.4,6.5-6.5c0-1.5-5.2-6.3-15.7-14.3c-3.9-4.7-5.9-8.2-5.9-10.4C149.4,61.8,154.1,58.5,163.7,56.6z"/>
	<path class="st0" d="M203.7,61.5c4.8,0.3,7.2,2.3,7.2,5.9l-2.6,2l-0.7-0.7H207v0.7c3.9,4.7,5.9,8.2,5.9,10.4v4.6
		c-4.6,11.7-12.2,17.6-22.8,17.6h-3.9c-6.1-1.4-9.1-4.5-9.1-9.1v-2c0-8.2,6.7-17.3,20.2-27.4L203.7,61.5z M196.6,71.9l-5.9,6.5
		l-0.4,0.4l-0.4,0.9l-0.6,0.7c-2.4,0.9-3.6,3.7-5.9,11.1c0,2.6,1.5,3.9,4.6,3.9h2.6c10.4-3.5,15.7-7.8,15.7-13v-0.7
		C204.5,75.2,201.2,71.9,196.6,71.9z"/>
	<path class="st0" d="M218.2,47.4h2c1.3,0.4,2,1.7,2,3.9v3.3l-2.6,31.3v0.7h0.7c4.2-17.8,7.9-26.7,11.1-26.7h0.7
		c5.2,0,7.8,8.5,7.8,25.4c3.6,18.7,7.7,28,12.4,28c1.3,0,3.7-1.5,7.2-4.6v0.7c-3.2,5.2-6.4,7.8-9.8,7.8h-1.3
		c-8.3,0-13.7-15.2-16.3-45.7h-0.7c-5.9,22.7-9.8,35.8-11.7,39.1l-2,1.3h-2c-2.6-1.2-3.9-4-3.9-8.5
		C213.9,66.1,216.1,47.4,218.2,47.4z"/>
</g>
<path class="st0" d="M11.2,132.4c5.3-0.5,10.6-1,15.9-1.5c12.6-1.2,25.3-2.3,37.9-3.5c15.3-1.4,30.6-2.8,45.9-4.2
	c13.3-1.2,26.6-2.5,39.9-3.7c6.4-0.6,12.9-1,19.2-1.8c0.1,0,0.2,0,0.3,0c1.6-1.5,3.2-2.9,4.9-4.4c-3.1,0.6-6.3,1.3-9.4,1.9
	c-7.5,1.5-14.9,3-22.4,4.6c-9,1.8-18.1,3.7-27.1,5.5c-7.9,1.6-15.7,3.2-23.6,4.8c-3.8,0.8-7.6,1.5-11.4,2.3c-0.1,0-0.1,0-0.2,0
	c-1.9,0.4-3.8,0.8-5.6,1.6c-0.9,0.4-2.1,0.8-2.8,1.5c-0.4,0.4-0.7,0.7-0.1,1.1c0.8,0.6,2.8,0.2,3.6,0.1c1.8-0.1,3.5-0.3,5.3-0.4
	c4.7-0.4,9.5-0.8,14.2-1.2c7-0.6,14.1-1.1,21.1-1.7c8.5-0.7,17.1-1.4,25.6-2.1c9.4-0.8,18.8-1.5,28.2-2.3c9.5-0.8,19-1.5,28.5-2.3
	c8.8-0.7,17.6-1.4,26.4-2.1c7.5-0.6,15-1.2,22.4-1.8c5.4-0.4,10.8-0.9,16.1-1.3c2.5-0.2,5.1-0.4,7.6-0.6c0.1,0,0.2,0,0.3,0
	c1.9-0.2,3.9-0.7,5.6-1.3c1.3-0.4,3-1,4.2-1.8c2.5-1.9-2.3-1.6-3.2-1.5c-1.8,0.1-3.5,0.3-5.3,0.4c-4.7,0.4-9.5,0.8-14.2,1.2
	c-7,0.6-14.1,1.1-21.1,1.7c-8.5,0.7-17.1,1.4-25.6,2.1c-9.4,0.8-18.8,1.5-28.2,2.3c-9.5,0.8-19,1.5-28.5,2.3
	c-8.8,0.7-17.6,1.4-26.4,2.1c-7.5,0.6-15,1.2-22.4,1.8c-5.4,0.4-10.8,0.9-16.1,1.3c-2.5,0.2-5.1,0.3-7.6,0.6c-0.1,0-0.2,0-0.3,0
	c-1.6,1.5-3.2,2.9-4.9,4.4c3.1-0.6,6.3-1.3,9.4-1.9c7.5-1.5,14.9-3,22.4-4.6c9-1.8,18.1-3.7,27.1-5.5c7.9-1.6,15.7-3.2,23.6-4.8
	c3.8-0.8,7.6-1.5,11.4-2.3c0.1,0,0.1,0,0.2,0c1.9-0.4,3.8-0.8,5.6-1.6c0.9-0.4,2.1-0.8,2.8-1.5c0.4-0.4,0.7-0.7,0.1-1.1
	c-0.8-0.6-2.8-0.2-3.6-0.1c-5.3,0.5-10.6,1-15.9,1.5c-12.6,1.2-25.3,2.3-37.9,3.5c-15.3,1.4-30.6,2.8-45.9,4.2
	c-13.3,1.2-26.6,2.5-39.9,3.7c-6.4,0.6-12.8,1.1-19.2,1.8c-0.1,0-0.2,0-0.3,0c-1.9,0.2-3.9,0.7-5.6,1.3c-1.3,0.4-3,1-4.2,1.8
	C5.5,132.7,10.3,132.5,11.2,132.4L11.2,132.4z"/>
</svg>
