<?xml version="1.0" encoding="utf-8"?>
<!-- Generator: Adobe Illustrator 26.2.1, SVG Export Plug-In . SVG Version: 6.00 Build 0)  -->
<svg version="1.1" id="Capa_1" xmlns="http://www.w3.org/2000/svg" xmlns:xlink="http://www.w3.org/1999/xlink" x="0px" y="0px"
	 viewBox="0 0 32 32" style="enable-background:new 0 0 32 32;" xml:space="preserve">
<style type="text/css">
	.st0{fill:#F7DAB2;}
	.st1{fill:#010001;}
	.st2{fill:#F5D2A3;}
	.st3{fill:#FFFFFF;}
	.st4{fill:#F5BD8B;}
	.st5{fill:#1E1C40;}
</style>
<g>
	<g>
		<path class="st0" d="M7.4,21.9c0,0.3-0.2,1.2-0.2,1.5C7.1,24.3,6.9,25.1,7,26c0.1,0.8,0.6,1.6,1.1,2.2c1,1.4,2.4,2.4,4.1,3
			c1.4,0.5,2.9,0.8,4.4,0.6c2.1-0.2,4-1.1,5.6-2.4c0.3-0.2,0.5-0.4,0.8-0.7c0.9-0.8,1.5-1.8,1.8-2.9c0.3-1.3-0.1-2.6-0.2-3.9
			c0,0,0.8-0.6,0.9-0.7c0.8-0.9,2.1-3.2,0.6-4c-0.2-0.1-0.7-0.4-0.9-0.3c0,0-0.7,0.3-0.7,2.9l-0.4,0.3c0,0,0-3.9,1.9-5.1
			c0,0,1.2-2.8-2-5.5c0,0-12.3-5.4-18.4,2.8c0,0,1.4,4.9,1.6,7.2l0.1-0.2c0,0,0.5-2.5-1.4-2.4c-1.7,0.1-0.5,3.5,0.1,4.8
			c0.1,0.2,0.5,0.7,0.8,0.8C7.5,22.7,7.4,22.1,7.4,21.9z"/>
		<path class="st1" d="M15.7,32c-0.9,0-1.7-0.1-2.4-0.3c-2.5-0.6-4.2-2.1-4.2-2.1c-0.5-0.6-2.2-2.5-2.2-4.1c0-0.7,0-1,0.1-1.4
			c0-0.2,0.1-0.4,0.1-0.7c0-0.1,0-0.3,0.1-0.6c0-0.1,0-0.1,0-0.2c-0.1,0.1-0.3,0.1-0.4,0c-0.3-0.1-0.7-0.6-0.8-0.8
			c-0.5-1-1.4-3.5-0.8-4.5c0.2-0.3,0.4-0.4,0.8-0.4c0.3,0,0.5,0,0.7,0.1c-0.5-2.2-1.1-4.5-1.1-4.6l0,0l0,0c1.4-1.9,3.2-3.2,5.5-3.9
			c1.8-0.6,3.8-0.8,6.1-0.6c3.8,0.3,6.9,1.7,7,1.7l0,0c3.2,2.8,2,5.6,2,5.7l0,0l0,0c-1.6,1-1.8,4-1.8,4.8l0.2-0.2
			c0-2.6,0.6-2.9,0.7-3c0.3-0.1,0.9,0.2,1,0.3c0.4,0.2,0.6,0.6,0.7,1c0.2,1.1-0.7,2.5-1.3,3.2c0,0-0.6,0.5-0.9,0.7
			c0,0.3,0.1,0.6,0.1,0.9c0.2,1,0.3,2,0.1,3c-0.3,1.1-0.9,2.1-1.8,2.9C20.4,31.3,17.8,32,15.7,32z M7.4,22.4c0,0.2,0,0.3-0.1,0.5
			c0,0.2-0.1,0.5-0.1,0.6c0,0.3-0.1,0.5-0.1,0.7c-0.1,0.4-0.1,0.7-0.1,1.4c0,1.2,1.1,2.8,2.2,3.9c0,0,1.6,1.4,4.1,2.1
			c2.3,0.6,5.8,0.6,9.6-2.8c0.9-0.8,1.5-1.8,1.8-2.8c0.2-1,0.1-1.9-0.1-2.9c-0.1-0.3-0.1-0.6-0.1-1l0.1,0l0-0.1c0,0-0.1,0-0.1,0
			c0.1,0,0.8-0.6,0.8-0.6c0.6-0.6,1.4-2,1.2-3c-0.1-0.4-0.3-0.7-0.6-0.8c-0.3-0.2-0.7-0.3-0.8-0.3c0,0-0.6,0.3-0.6,2.8v0L24,20.5
			v-0.2c0-0.2,0-3.9,1.9-5.2c0.1-0.3,1-2.9-2-5.4c-0.2-0.1-3.2-1.4-6.9-1.7c-3.5-0.3-8.2,0.2-11.3,4.4c0.1,0.4,0.7,2.6,1.2,4.7
			c0,0,0.1,0.1,0.1,0.1c0.6,0.7,0.4,2.1,0.3,2.1l0,0L7.1,20l0-0.3c0-0.6-0.2-1.5-0.4-2.3c-0.2-0.1-0.5-0.2-0.8-0.2
			c-0.3,0-0.5,0.1-0.6,0.3c-0.5,0.9,0.3,3.4,0.8,4.3c0.1,0.2,0.5,0.7,0.7,0.7c0.2,0,0.3,0,0.3,0c0,0,0.1-0.1,0.1-0.1
			c0-0.2,0-0.3,0.1-0.4c0,0,0,0,0,0l0.2,0c0,0,0,0,0,0c0,0,0,0,0,0.1C7.5,22.1,7.5,22.2,7.4,22.4z M7,17.6c0.1,0.6,0.2,1.1,0.3,1.5
			C7.3,18.7,7.3,18,7,17.6z"/>
	</g>
	<path d="M14.4,16.9c0.7,1.3,0.9,3.1-0.1,4.3c-0.1,0.2-0.3,0.3-0.5,0.4c0.1-0.2,0.3-0.3,0.4-0.5C15.1,19.8,14.8,18.2,14.4,16.9
		L14.4,16.9z"/>
	<path d="M12.7,22.2c-0.7,1,0,1,0.8,0.9c0.4,0,0.8,0.2,1.2,0.4c0.3,0.2,0.7,0.4,1,0.6c-0.7-0.3-1.4-0.7-2.2-0.8c-0.1,0-0.4,0-0.5,0
		C12.1,23.3,12.1,22.7,12.7,22.2L12.7,22.2z"/>
	<path d="M11.9,17.1c1,0.2,2.2,1,1.8,2.2c-0.1,0.3-0.3,0.6-0.6,0.9c0.1-0.1,0.1-0.1,0.2-0.2c0.1-0.2,0.2-0.4,0.3-0.6
		C14,18.2,12.8,17.4,11.9,17.1L11.9,17.1z"/>
	<path d="M5.9,19.8c-0.2-1.1,0.2-1.6,0.8-0.4c0,0,0,0,0,0l0,0c-0.2,0.4-0.2,1-0.1,1.4c0,0,0.1,0.2,0.1,0.2c0,0,0.1,0.2,0.1,0.2
		c0,0,0.1,0.2,0.1,0.2C7,21.7,7,21.8,7.1,21.8c-0.1-0.1-0.2-0.2-0.3-0.4c0,0-0.1-0.1-0.1-0.1l0-0.1c-0.4-0.6-0.5-1.3-0.2-1.9
		c0,0,0,0.1,0,0.1c-0.1-0.2-0.2-0.4-0.3-0.6c0,0,0,0-0.1,0C6,18.9,6,19,6,19C5.9,19.3,5.9,19.5,5.9,19.8L5.9,19.8z"/>
	<path d="M8.7,18.4c-0.5,0.2-1.1,0.6-0.5,1.1c0.1,0.1,0.3,0.2,0.5,0.3c-0.2-0.1-0.3-0.1-0.5-0.3C7.5,19,8.1,18.5,8.7,18.4L8.7,18.4z
		"/>
	<path d="M7.5,16c0.4-0.4,0.8-0.7,1.2-1.1c0.5,0,1,0,1.5,0c0.9,0.1,1.9,0.2,2.8,0.5c0.4,0.1,0.8,0.2,1.2,0.5c0.1,0,0.1,0.1,0.2,0.1
		c-0.5-0.1-0.9-0.2-1.4-0.2c-1.3-0.2-2.8-0.3-4.2-0.5c0,0,0.1,0,0.1,0C8.5,15.5,8,15.8,7.5,16L7.5,16z"/>
	<path class="st2" d="M24.8,17.9c0,0,0.8,0.6,0.5,1.2c0,0,0.6,1.8-0.7,2.2c0,0-0.2,0.4,0.1,0.5c0,0,2.5-2.1,1.8-4.1
		C26.4,17.7,24.9,16.5,24.8,17.9z"/>
	<path d="M25.2,18c0.3-0.1,0.6,0.2,0.6,0.6c0,0.1-0.1,0.3-0.1,0.4c-0.1,0.1-0.2,0.2-0.3,0.3c0-0.1,0-0.1,0.1-0.2
		C25.6,18.7,25.7,18.2,25.2,18L25.2,18z"/>
	<path d="M25.2,19.8c0,0.1,0,0.1,0,0.2c0,0.2,0.1,0.5,0.1,0.7c-0.1,0.2-0.3,0.7-0.6,0.6c0,0-0.1,0-0.1-0.1c0.1,0,0.1,0,0.2,0
		c0.2-0.1,0.2-0.4,0.3-0.5c0,0,0,0,0,0c0-0.3,0-0.5,0-0.8C25.1,19.9,25.1,19.8,25.2,19.8L25.2,19.8z"/>
	<path d="M24.5,22.2c-0.2-0.9-0.2-1.9,0.1-2.8c0,0.1,0,0.2,0,0.4C24.5,20.5,24.5,21.4,24.5,22.2L24.5,22.2z"/>
	<ellipse transform="matrix(0.1602 -0.9871 0.9871 0.1602 -10.3882 25.0893)" class="st1" cx="9.6" cy="18.6" rx="1" ry="1"/>
	<path class="st3" d="M9.6,18.9c0,0.2-0.2,0.4-0.4,0.4c-0.2,0-0.4-0.2-0.4-0.4c0-0.2,0.2-0.4,0.4-0.4C9.4,18.5,9.6,18.7,9.6,18.9z"
		/>
	<path class="st2" d="M6.8,12.5c0,0,0,1.1,2.7,1.4c0,0,3.6-0.4,4.3,0.6c0,0,4.2,0.6,6.4-0.5c0,0,3.8-2.3,4.4,0.9l0.6-0.6l-0.8-2.9
		c0,0-5.5,0-6,0c-0.5,0-8.4-0.3-8.4-0.3l-2.7,1.1L6.8,12.5z"/>
	<path class="st2" d="M19.2,14.1c0,0-2.3,0.2-3,3.6c0,0,2,8.6-1.1,10.6c0,0,2,3.6,2,3.6c0,0,0.8-0.2,0.9-0.3
		c0.7-0.2,1.4-0.6,2.1-0.9c0.9-0.5,1.8-0.9,2.5-1.6c0.5-0.5,1-0.9,1.3-1.5c0.3-0.6,0.7-1.4,0.8-2.1c0.1-0.6,0-1.3-0.1-1.9
		c-0.1-0.7-0.2-1.3-0.3-1.9c0,0,0.7-7.5,0.7-7.5l-2.3-1L19.2,14.1z"/>
	<path d="M17.3,17c-0.4,1.4-0.7,3,0.2,4.2c0.1,0.2,0.3,0.3,0.4,0.5c-0.2-0.1-0.3-0.3-0.5-0.4C16.4,20.1,16.7,18.3,17.3,17L17.3,17z"
		/>
	<path d="M19,22.2c0.6,0.5,0.6,1.1-0.3,1.1c-0.2,0-0.4,0-0.5,0c-0.8,0.1-1.5,0.5-2.2,0.8c0.3-0.2,0.7-0.4,1-0.6
		c0.4-0.2,0.7-0.3,1.2-0.4C19,23.2,19.7,23.2,19,22.2L19,22.2z"/>
	<path d="M9.4,23.1c0.3,0.6,0.8,1,1.3,1.4c0.5,0.4,1.1,0.7,1.7,1c1.3,0,3.1,0.1,4.5,0.2c0,0,1.6,0.1,1.5,0.1
		c0.9-0.1,4.2-0.6,4.2-1.7c0.1,1.2-3.3,1.8-4.2,1.9c-2-0.1-4.1-0.2-6.1-0.3C11.2,25.1,10,24.3,9.4,23.1L9.4,23.1z"/>
	<path d="M14.1,27.7c1.2-0.6,2.7-0.8,4-0.2c0.1,0.1,0.3,0.1,0.4,0.2c-0.1,0-0.3-0.1-0.4-0.1C16.7,27.1,15.3,27.3,14.1,27.7
		L14.1,27.7z"/>
	<path d="M22.8,18.2c0.4,0.2,1.1,0.8,0.5,1.2c-0.2,0.1-0.3,0.2-0.5,0.2c0.2-0.1,0.3-0.1,0.5-0.3C23.8,19,23.2,18.5,22.8,18.2
		L22.8,18.2z"/>
	<path d="M18.6,18c0.4-0.7,1.4-0.8,2.1-0.8c0.1,0,0.2,0,0.3,0c-0.2,0-0.4,0-0.7,0.1C19.7,17.4,19,17.5,18.6,18L18.6,18z"/>
	<ellipse transform="matrix(0.9891 -0.147 0.147 0.9891 -2.5322 3.0363)" class="st1" cx="19.3" cy="18.6" rx="1" ry="1"/>
	<circle class="st3" cx="18.9" cy="18.9" r="0.4"/>
	<path d="M25.2,18.9c0,0,3-7.5,1.3-9c0,0-7.6-8.8-8.6-8.5L17.5,2c0,0-0.4-1.2-0.2-2c0,0-1.5,0.1-2,1.2L15.2,0c0,0-1.6,1.1-1.7,1.7
		c0,0,0.2-1.5-0.6-0.6L12,2.1c0,0-0.4-0.5-1,0.6c0,0-5.3,6-5.9,8.6c-0.1,0.4,0,1,0.1,1.4c0,0.7,0,1.5,0.1,2.2
		c0.1,0.8,0.4,1.5,0.8,2.2c0.2,0.3,0.3,0.5,0.5,0.8c0,0.1,0.2,0.3,0.2,0.3c0-0.1-0.7-5.4,0.6-6.3c0,0,0.6-0.3,2,0.3
		c0,0,5.2,1.5,8.7,0.6c0,0,4.2-1.3,5.9-0.5c0,0,0.9,0.3,0.9,1.1l-0.3,5.1l0,1L25.2,18.9z"/>
	<g>
		<line class="st0" x1="7.4" y1="22.8" x2="7.4" y2="20.9"/>
		<path class="st1" d="M7.4,22.8c-0.1-0.6-0.1-1.2,0-1.8C7.5,21.5,7.5,22.2,7.4,22.8L7.4,22.8z"/>
	</g>
	<path d="M15,29c0.3-0.3,1.1-0.4,1.5-0.1c0.2,0.2,0.3,0.4,0.5,0.6c0.2,0.2,0.4,0.4,0.6,0.6c0.5,0.4,1.1,0.6,1.7,0.6
		c0.6,0,1.1-0.1,1.7-0.4c0,0-4.4,3.4-10.1,0.3c0.2,0.1,0.5,0.1,0.7,0.1c0.5,0,1,0,1.5-0.1c0.4-0.1,0.9-0.3,1.2-0.6
		c0.2-0.1,0.3-0.3,0.4-0.5C14.8,29.4,14.9,29.1,15,29C15,29,15,29,15,29z"/>
	<path class="st4" d="M13.5,21.6c0,0.2-1.6,0.8-3,0.8s-2.6-0.6-2.6-0.8c0-0.2,1.2-0.1,2.6-0.1S13.5,21.4,13.5,21.6z"/>
	<path class="st4" d="M24.4,21.2c0,0.2,0,1.5-2.9,1.1c-1.6-0.2-2.7-0.4-2.7-0.6c0-0.2,1.1-0.1,2.7-0.1S24.4,21,24.4,21.2z"/>
	<ellipse transform="matrix(0.6929 -0.721 0.721 0.6929 -9.9567 11.5602)" class="st3" cx="8.6" cy="17.5" rx="0.5" ry="0.2"/>
	<ellipse transform="matrix(0.8244 -0.5661 0.5661 0.8244 -7.994 14.032)" class="st3" cx="18.6" cy="19.9" rx="0.1" ry="0.9"/>
	<ellipse transform="matrix(0.8244 -0.5661 0.5661 0.8244 -8.0944 14.3626)" class="st3" cx="19.1" cy="20.2" rx="0.1" ry="0.3"/>
	<ellipse transform="matrix(0.6929 -0.721 0.721 0.6929 -10.0505 11.8072)" class="st3" cx="8.8" cy="17.7" rx="0.2" ry="0.1"/>
	<g>
		<line class="st0" x1="24.6" y1="22.5" x2="24.5" y2="20.7"/>
		<path class="st1" d="M24.6,22.5c-0.2-0.6-0.2-1.2-0.1-1.8C24.7,21.3,24.7,21.9,24.6,22.5L24.6,22.5z"/>
	</g>
	<path class="st5" d="M26.2,16.6c-0.2-0.3-0.7-0.2-1-0.3c-0.5,0-1-0.1-1.5-0.1c-1-0.1-2-0.2-2.9-0.2c-0.9-0.1-1.8-0.1-2.7,0.2
		c-0.7,0.2-1.3,0.7-2.1,0.6c-0.8-0.1-1.4-0.5-2.2-0.6c-1-0.2-1.9-0.3-2.9-0.3c-0.9,0-1.7,0.1-2.6,0.2c-0.8,0.1-1.6,0.1-2.3,0.4
		c-0.2,0.1-0.4,0.2-0.4,0.6c0,0.3-0.1,1,0.3,1.3c0.2,0.1,0.4,0.1,0.6,0.1c0,0,0.1,0,0.1,0c0,0,0,0.1,0,0.1C6.8,19,6.9,19.6,7,20.1
		c0.1,0.5,0.3,0.9,0.6,1.3c0.3,0.3,0.6,0.4,1,0.4c1.3,0,2.6,0,3.9,0c0.3,0,0.5,0,0.7-0.1c0.4-0.2,0.6-0.5,0.8-0.9
		c0.3-0.5,0.6-1,0.9-1.4c0.1-0.1,0.2-0.3,0.3-0.4c0.2-0.2,0.5-0.3,0.9-0.2c0.2,0.1,0.3,0.2,0.4,0.4c0.4,0.6,0.7,1.2,1.2,1.8
		c0.2,0.3,0.6,0.6,0.9,0.7c0.6,0.2,1.3,0.1,1.9,0.1c0.7,0,1.4,0,2.1,0c0.4,0,0.8,0,1.1-0.2c0.4-0.2,0.8-0.6,0.9-1.1
		c0.2-0.5,0.2-0.9,0.3-1.4c0-0.2,0.1-0.4,0.1-0.6c0.1-0.2,0.1-0.2,0.3-0.2c0.3-0.1,0.5,0,0.7-0.2c0.1-0.2,0.2-0.4,0.2-0.6
		C26.4,17.1,26.3,16.8,26.2,16.6z M14.1,19.5c-0.3,0.7-0.8,1.4-1.6,1.5c-1.1,0.1-2.2,0.1-3.2,0c-0.3,0-0.6,0-0.9-0.2
		c-0.5-0.2-0.7-0.8-0.8-1.3c-0.1-0.4-0.2-0.9-0.2-1.3c0-0.3,0-0.6,0.2-0.9c0.1-0.1,0.2-0.2,0.3-0.2c0.5-0.2,1.1-0.2,1.6-0.3
		c1.4-0.1,2.9-0.1,4.3,0.2c0.3,0.1,0.6,0.1,0.8,0.4c0.1,0.1,0.1,0.3,0.1,0.4C14.7,18.5,14.4,19,14.1,19.5z M24.3,18.5
		c-0.1,0.6-0.3,1.3-0.5,1.9c-0.1,0.2-0.2,0.3-0.3,0.4c-0.5,0.4-1.3,0.2-1.9,0.2c-0.6,0-1.2,0-1.8,0c-0.3,0-0.6,0-0.9-0.1
		c-0.5-0.2-0.8-0.6-1-1.1c-0.2-0.5-0.5-1-0.6-1.6c-0.3-1.1,1-1.3,1.8-1.5c1.3-0.2,2.7-0.1,4,0.1c0.4,0.1,0.8,0.1,1,0.4
		C24.5,17.6,24.4,18.1,24.3,18.5z"/>
	<path d="M24.5,15.9c-0.5-0.2-0.9-0.5-1.4-0.7c0,0,0.1,0,0.1,0c-1.3,0.2-2.8,0.3-4.2,0.5c-0.5,0.1-0.9,0.1-1.4,0.2
		c0,0,0.1-0.1,0.2-0.1c0.4-0.2,0.8-0.3,1.2-0.5c0.9-0.3,1.9-0.4,2.8-0.5c0.5,0,1-0.1,1.5,0C23.7,15.1,24.1,15.5,24.5,15.9L24.5,15.9
		z"/>
</g>
</svg>
